<?xml version="1.0" standalone="no"?>
<!DOCTYPE svg PUBLIC "-//W3C//DTD SVG 20010904//EN"
 "http://www.w3.org/TR/2001/REC-SVG-20010904/DTD/svg10.dtd">
<svg version="1.0" xmlns="http://www.w3.org/2000/svg"
 width="100.000000pt" height="100.000000pt" viewBox="0 0 100.000000 100.000000"
 preserveAspectRatio="xMidYMid meet">
<metadata>
Created by potrace 1.14, written by Peter Selinger 2001-2017
</metadata>
<g transform="translate(0.000000,100.000000) scale(0.100000,-0.100000)"
fill="#000000" stroke="none">
<path d="M434 870 c-108 -16 -191 -77 -213 -157 -6 -21 -11 -66 -11 -100 l0
-63 -50 0 -50 0 0 -45 0 -45 50 0 50 0 0 -58 c0 -115 52 -200 149 -245 38 -18
65 -22 161 -22 110 0 117 1 170 31 32 18 68 49 85 73 27 38 30 52 33 132 l4
89 44 0 44 0 0 45 0 45 -45 0 -45 0 0 65 c0 150 -98 243 -270 258 -30 3 -78 1
-106 -3z m177 -101 c86 -29 132 -93 127 -177 l-3 -47 -222 -3 -221 -2 -7 30
c-17 78 24 157 100 191 47 22 172 26 226 8z m127 -358 c4 -61 -3 -85 -39 -126
-75 -86 -285 -87 -367 -2 -18 18 -37 49 -42 68 -12 39 -13 93 -3 103 4 3 106
5 227 4 l221 -3 3 -44z"/>
</g>
</svg>
